<?xml version="1.0" encoding="UTF-8"?> <svg xmlns="http://www.w3.org/2000/svg" width="294" height="102" viewBox="0 0 294 102" fill="none"><path d="M120.886 0h10.294c10.051 0 15.158 5.026 15.158 13.81v.315c0 8.825-5.229 14.174-15.199 14.174h-10.253V0zm10.01 22.048c4.833 0 6.971-2.533 6.971-7.792v-.314c0-5.38-2.138-7.68-7.042-7.68h-1.783v15.796h1.864l-.01-.01zM150.238 16.82V0h8.116v16.465c0 4.002.993 5.937 4.438 5.937s4.438-1.823 4.438-6.059V0h8.197v16.708c0 8.238-4.833 12.068-12.625 12.068-7.791 0-12.543-4.033-12.543-11.956h-.021zM180.827 0h12.625c6.687 0 9.534 3.01 9.534 7.397v.162c0 3.171-1.621 5.269-4.792 6.099 3.485.598 5.664 2.696 5.664 6.607v.162c0 5.066-3.283 7.872-10.295 7.872h-12.746V0h.01zm11.004 11.237c2.533 0 3.485-.871 3.485-2.888v-.152c0-1.935-1.033-2.806-3.485-2.806h-3.091v5.856h3.091v-.01zm.273 11.632c2.574 0 3.759-1.186 3.759-3.283v-.162c0-2.138-1.145-3.243-4.002-3.243h-3.131v6.688H192.104zM214.314 0h10.487l8.987 28.299h-8.592l-1.5-5.268h-9.382l-1.5 5.268h-7.558L214.314 0zm1.58 17.458h6.211l-3.09-10.882-3.131 10.882h.01zM237.334 0h8.197v28.299h-8.197V0zM120.886 36.273h19.119v6.292h-10.963v6.02h8.744v5.977h-8.744v10.01h-8.156V36.273zM144.109 36.273h8.196v28.3h-8.196v-28.3zM158.04 36.273h9.139l9.069 15.948V36.273h7.082v28.3h-7.832L165.163 46.8v17.771h-7.123V36.273zM194.364 42.525h-7.326v-6.252h22.797v6.252h-7.325v22.047h-8.156V42.525h.01zM213.554 36.273h19.555v6.252h-11.48v4.863h9.139v5.775h-9.139v5.148h12.108v6.251h-20.183V36.263v.01zM236.067 50.6v-.314c0-8.703 6.171-14.448 14.449-14.448 7.366 0 12.472 3.404 13.141 10.881h-8.349c-.314-2.887-1.905-4.468-4.752-4.468-3.637 0-5.937 2.847-5.937 7.994v.315c0 5.106 2.178 7.994 6.059 7.994 2.847 0 4.863-1.5 5.269-4.631h8.075c-.557 7.326-5.856 11.125-13.182 11.125-9.899 0-14.762-5.775-14.762-14.448h-.011zM267.73 36.273h8.157v10.811h9.301v-10.81h8.116v28.298h-8.116V53.407h-9.301v11.165h-8.157V36.273zM119.062 91.858h7.721c.202 2.016 1.104 3.678 4.468 3.678 2.33 0 3.637-1.145 3.637-2.807 0-1.661-1.064-2.219-4.468-2.735-7.994-.953-10.689-3.324-10.689-9.028 0-5.107 4.194-8.825 10.963-8.825 6.768 0 10.648 2.847 11.165 8.825h-7.518c-.273-2.016-1.428-3.05-3.637-3.05s-3.283.993-3.283 2.412c0 1.58.871 2.3 4.397 2.776 7.164.79 10.842 2.654 10.842 8.784 0 5.188-4.114 9.423-11.399 9.423-7.913 0-11.956-3.323-12.189-9.463l-.01.01zM146.125 89.365V72.546h8.116v16.465c0 4.002.993 5.937 4.437 5.937 3.445 0 4.438-1.824 4.438-6.059V72.546h8.197v16.708c0 8.237-4.833 12.067-12.624 12.067-7.792 0-12.544-4.032-12.544-11.956h-.02zM176.714 72.546h10.567l5.421 15.077 5.421-15.077h10.365v28.299h-8.075V83.236l-6.931 17.609h-2.695l-6.849-17.609v17.609h-7.245V72.546h.021zM214.152 72.546h10.568l5.42 15.077 5.421-15.077h10.365v28.299h-8.075V83.236l-6.931 17.609h-2.695l-6.849-17.609v17.609h-7.245V72.546h.021zM251.742 72.546h8.197v28.299h-8.197V72.546zM271.094 78.798h-7.325v-6.252h22.797v6.252h-7.326v22.047h-8.156V78.798h.01zM49.991 21.298h1.39a2.026 2.026 0 0 0 2.015-2.037 2.026 2.026 0 0 0-2.016-2.036h-1.389a2.026 2.026 0 0 0-2.016 2.036c0 1.125.902 2.037 2.016 2.037zM42.747 29.11h16.05a2.026 2.026 0 0 0 2.016-2.037 2.026 2.026 0 0 0-2.017-2.036H42.747a2.025 2.025 0 0 0-2.016 2.036c0 1.125.901 2.037 2.016 2.037zM66.628 32.859H34.57a2.026 2.026 0 0 0-2.016 2.036c0 1.125.902 2.037 2.016 2.037h32.058a2.026 2.026 0 0 0 2.017-2.037 2.026 2.026 0 0 0-2.017-2.036zM74.764 40.711h-7a2.037 2.037 0 0 0-2.027 2.047c0 1.124.912 2.047 2.026 2.047h7.001a2.038 2.038 0 0 0 2.027-2.047c0-1.125-.912-2.047-2.027-2.047zM82.07 48.634H62.85a2.036 2.036 0 0 0-2.027 2.047c0 1.125.912 2.047 2.026 2.047H82.07a2.037 2.037 0 0 0 2.026-2.047c0-1.125-.912-2.047-2.026-2.047zM74.714 56.507H52.828a2.037 2.037 0 0 0-2.026 2.047c0 1.124.912 2.046 2.026 2.046h21.886a2.037 2.037 0 0 0 2.026-2.046c0-1.125-.912-2.047-2.026-2.047z" fill="#fff"></path><path d="M62.12 40.812H44.368a2.036 2.036 0 0 0-2.026 2.047c0 1.125.912 2.047 2.026 2.047H62.12a2.037 2.037 0 0 0 2.026-2.047c0-1.125-.912-2.047-2.026-2.047zM56.81 48.634H44.368c-1.125 0-2.026.923-2.026 2.047 0 1.125.912 2.047 2.026 2.047H56.81a2.037 2.037 0 0 0 2.027-2.047c0-1.124-.912-2.047-2.027-2.047zM46.648 56.507h-2.28a2.036 2.036 0 0 0-2.026 2.047c0 1.124.912 2.046 2.026 2.046h2.28a2.036 2.036 0 0 0 2.026-2.046c0-1.125-.912-2.047-2.026-2.047z" fill="#12E9E9"></path><path d="M26.434 44.916h11.987a2.037 2.037 0 0 0 2.026-2.047c0-1.124-.912-2.046-2.026-2.046H26.434a2.037 2.037 0 0 0-2.026 2.046c0 1.125.912 2.047 2.026 2.047zM38.421 52.738a2.037 2.037 0 0 0 2.026-2.047c0-1.124-.912-2.046-2.026-2.046h-19.17a2.037 2.037 0 0 0-2.027 2.046c0 1.125.912 2.047 2.027 2.047h19.17zM38.431 56.507H26.455a2.037 2.037 0 0 0-2.027 2.047c0 1.124.912 2.046 2.027 2.046h11.976a2.037 2.037 0 0 0 2.026-2.046c0-1.125-.912-2.047-2.026-2.047zM58.604 72.273H42.788c-1.105 0-2.007.912-2.007 2.026 0 1.115.902 2.026 2.007 2.026h15.816c1.104 0 2.006-.91 2.006-2.026 0-1.114-.902-2.026-2.006-2.026zM66.64 64.491H34.56c-1.104 0-2.006.912-2.006 2.027 0 1.114.902 2.026 2.006 2.026h32.08c1.103 0 2.005-.912 2.005-2.026 0-1.115-.902-2.027-2.006-2.027zM51.126 80.044h-1.053c-1.105 0-2.007.912-2.007 2.026 0 1.115.902 2.027 2.007 2.027h1.053c1.105 0 2.006-.912 2.006-2.027 0-1.114-.9-2.026-2.006-2.026zM101.21 48.381 52.88.001v8.632L92.586 48.38h8.623zM0 52.83l48.442 48.491v-8.632l-39.82-39.86H0zM48.442 8.633V0L.112 48.381h8.622L48.442 8.633zM52.88 92.689v8.632l48.441-48.492h-8.623L52.88 92.69z" fill="#fff"></path></svg> 