<svg width="315" height="176" viewBox="0 0 315 176" fill="none" xmlns="http://www.w3.org/2000/svg">
<rect y="0.5" width="315" height="175" rx="8" fill="#F9F9F9"/>
<g clip-path="url(#clip0_122_3892)">
<path d="M201.011 90.3502C200.772 91.211 200.292 91.9373 199.52 92.5291C198.775 93.1209 197.976 93.4168 197.124 93.4168H166.908C166.056 93.4168 165.444 93.1209 165.018 92.5291C164.592 91.9373 164.512 91.211 164.752 90.3502L171.487 65.818C171.727 64.9573 172.206 64.231 172.951 63.6392C173.697 63.0474 174.469 62.7515 175.321 62.7515H205.564C206.442 62.7515 207.081 63.0474 207.507 63.6392C207.933 64.231 208.013 64.9573 207.747 65.8449L206.948 68.7501H176.705L171.593 87.4182H201.81L201.011 90.3502ZM218.875 62.7784H212.831L204.445 93.3899H210.489L218.875 62.7784ZM127.587 62.7246H121.544L116.033 82.7915L91.7798 62.7784L83.3672 93.4974H89.4105L94.868 73.565L119.121 93.5513L127.587 62.7246ZM166.961 63.6123C166.535 63.0205 165.896 62.7246 165.018 62.7246H131.846L130.196 68.7232H160.385L158.628 75.1252H128.465L123.434 93.363H129.477L132.831 81.1238H159.986C160.838 81.1238 161.637 80.8279 162.382 80.2361C163.128 79.6443 163.633 78.918 163.873 78.0572L167.227 65.7911C167.467 64.9304 167.361 64.2041 166.961 63.6123Z" fill="#28387D"/>
<path d="M230.295 62.752L237.936 78.1115L221.883 93.4441L230.295 62.752Z" fill="#088C45"/>
<path d="M224.943 62.752L232.557 78.1115L216.504 93.4441L224.943 62.752Z" fill="#F37A21"/>
<path d="M219.777 98.394C219.644 98.2326 219.538 98.0712 219.405 97.9098C219.005 97.4525 218.633 97.1297 218.26 96.8876C217.967 96.6993 217.701 96.5648 217.435 96.4841C217.142 96.3765 216.849 96.3496 216.556 96.3496C215.997 96.3496 215.518 96.4572 215.119 96.6993C214.719 96.9414 214.453 97.2911 214.32 97.7484C214.267 97.9367 214.267 98.0981 214.32 98.2595V98.2864C214.32 98.3133 214.347 98.3671 214.347 98.4209H213.335L213.202 98.905H214.187L213.015 103.317H213.734L214.906 98.905H219.618L219.325 100.035H216.45C216.343 100.035 216.263 100.062 216.13 100.089C215.997 100.142 215.917 100.223 215.891 100.385C215.864 100.465 215.891 100.6 216.21 101.003L216.263 101.057C216.53 101.38 216.716 101.541 216.849 101.541C217.035 101.541 217.142 101.46 217.168 101.38L217.381 100.546H219.218L218.473 103.343H219.165L220.337 98.9319H222.866L222.493 100.331H221.854C221.801 100.331 221.774 100.358 221.748 100.358C221.588 100.385 221.508 100.465 221.481 100.546C221.428 100.734 221.535 100.976 221.827 101.272C222.12 101.568 222.36 101.703 222.546 101.703C222.706 101.703 222.839 101.622 222.892 101.487C222.919 101.434 222.946 101.38 222.946 101.299L223.584 98.9319H225.262L224.09 103.343H224.809L225.98 98.9319H228.084L227.658 100.492H227.178C227.125 100.492 227.045 100.492 226.965 100.519C226.859 100.546 226.779 100.627 226.726 100.761C226.699 100.896 226.806 101.111 227.072 101.407C227.338 101.703 227.551 101.864 227.711 101.864C227.844 101.864 227.951 101.81 228.004 101.729C228.03 101.703 228.03 101.649 228.03 101.595L228.19 100.976H230.134L229.495 103.317H230.187L231.358 98.905H232.29L232.423 98.4209H219.777V98.394ZM230.719 98.8781L230.293 100.438H228.35L228.776 98.8781H230.719ZM215.518 97.0759C215.811 96.8876 216.077 96.8069 216.37 96.8069C216.663 96.8069 216.955 96.8876 217.248 96.9952C217.408 97.0759 217.568 97.1566 217.701 97.2373C218.047 97.4525 218.366 97.7215 218.633 98.0712L218.713 98.1519C218.766 98.2326 218.819 98.2864 218.872 98.3671H214.985C214.959 98.3133 214.959 98.2864 214.959 98.2595V98.2326C214.932 98.0712 214.932 97.9098 214.985 97.7753C215.065 97.5063 215.252 97.2642 215.518 97.0759ZM187.857 98.394H209.767L209.634 98.8781H208.703L207.531 103.29H206.839L207.584 100.492H205.748L205.535 101.326C205.481 101.434 205.375 101.487 205.215 101.487C205.082 101.487 204.922 101.353 204.629 101.003C204.283 100.573 204.257 100.411 204.283 100.358C204.31 100.223 204.416 100.116 204.523 100.062C204.629 100.035 204.736 100.008 204.842 100.008H207.718L208.01 98.8781H203.298L202.127 103.29H201.435L202.606 98.8781H200.929L199.757 103.29H199.065L199.864 100.277H197.841C197.574 100.277 197.361 100.331 197.228 100.411C197.095 100.492 197.015 100.6 196.962 100.761C196.856 101.191 196.989 101.676 197.335 102.16C197.468 102.348 197.681 102.563 197.947 102.805L198 102.859L197.441 103.236L197.415 103.209C197.122 102.94 196.882 102.698 196.723 102.483C196.27 101.891 196.137 101.326 196.27 100.788C196.35 100.465 196.51 100.25 196.776 100.089C197.015 99.9272 197.308 99.8465 197.654 99.8465H199.997L200.263 98.905H195.471L194.3 103.317H193.581L194.753 98.905H193.075L192.436 101.272C192.436 101.353 192.41 101.434 192.383 101.487C192.303 101.622 192.197 101.703 192.037 101.703C191.824 101.703 191.611 101.568 191.318 101.272C191.052 100.976 190.919 100.734 190.972 100.546C190.999 100.411 191.158 100.358 191.238 100.358C191.265 100.358 191.265 100.358 191.292 100.358H191.345H191.984L192.356 98.9588H189.801L188.656 103.263C188.842 103.317 189.002 103.397 189.135 103.532C189.348 103.747 189.401 104.016 189.322 104.312C189.215 104.662 189.002 104.957 188.629 105.173C188.283 105.388 187.831 105.495 187.325 105.495C186.713 105.495 186.153 105.334 185.648 105.011C185.461 104.904 185.302 104.742 185.089 104.5L185.035 104.446L185.594 103.989L185.621 104.043C185.781 104.258 185.914 104.393 186.047 104.5C186.42 104.823 186.846 104.984 187.325 104.984C187.618 104.984 187.884 104.904 188.124 104.796C188.363 104.662 188.523 104.5 188.576 104.258C188.629 104.124 188.603 103.989 188.496 103.908C188.416 103.801 188.283 103.774 188.097 103.774C187.937 103.774 187.751 103.828 187.564 103.962C187.511 103.989 187.458 104.043 187.325 104.15L187.298 104.177L186.846 103.747L186.899 103.72C187.059 103.612 187.192 103.532 187.298 103.478C187.511 103.37 187.724 103.317 187.937 103.263L188.496 101.191H186.792L186.633 101.837C186.633 101.891 186.606 101.972 186.579 102.025C186.526 102.133 186.393 102.133 186.287 102.133C186.207 102.133 186.047 102.079 185.621 101.622C185.195 101.165 185.168 101.003 185.195 100.922C185.222 100.842 185.275 100.788 185.381 100.707C185.488 100.654 185.541 100.627 185.594 100.627H186.26L186.659 99.174C186.686 99.0664 186.686 98.9857 186.633 98.905C186.579 98.8512 186.446 98.7975 186.26 98.7975C186.1 98.7975 185.994 98.8243 185.887 98.905C185.781 98.9857 185.701 99.0933 185.674 99.2278C185.648 99.3354 185.648 99.4699 185.674 99.5775C185.674 99.5775 185.701 99.6044 185.701 99.6313L185.754 99.712H185.009L184.982 99.6851C184.955 99.6313 184.955 99.5775 184.929 99.5506V99.5237C184.902 99.3623 184.902 99.2547 184.929 99.174C185.009 98.8781 185.195 98.663 185.435 98.5016C185.701 98.3671 185.994 98.2864 186.313 98.2864C186.633 98.2864 186.899 98.3671 187.059 98.5285C187.245 98.6899 187.298 98.905 187.245 99.174L186.872 100.573H188.576L189.029 98.8781H187.698L187.857 98.394ZM174.333 97.4525C174.094 96.9145 173.721 96.5917 173.215 96.4841C173.055 96.4572 172.896 96.4303 172.683 96.4303C172.257 96.4303 171.911 96.5379 171.618 96.6993C171.325 96.8876 171.112 97.1835 171.005 97.5601C170.952 97.7484 170.979 97.9636 171.032 98.2057C171.032 98.2595 171.059 98.3133 171.085 98.394H157.907L157.774 98.8781H160.649L160.356 99.981C160.303 100.142 160.223 100.277 160.064 100.385C159.904 100.492 159.718 100.546 159.478 100.546C159.345 100.546 159.212 100.519 159.105 100.492C158.972 100.438 158.946 100.385 158.946 100.358L158.653 99.6582L158.014 99.981L158.04 100.035C158.12 100.196 158.173 100.331 158.2 100.438C158.333 100.761 158.52 101.111 158.759 101.541C158.919 101.81 159.132 102.133 159.371 102.456C159.558 102.725 159.771 102.994 160.01 103.263L160.037 103.29L160.649 102.886L160.596 102.832C160.516 102.752 160.463 102.698 160.41 102.644C160.356 102.59 160.303 102.536 160.277 102.483C160.17 102.348 160.09 102.241 160.01 102.133C159.904 101.998 159.824 101.891 159.744 101.783L159.265 100.949C159.531 101.003 159.851 100.949 160.197 100.842C160.436 100.761 160.649 100.627 160.782 100.492C160.916 100.358 160.995 100.196 161.049 100.035L161.368 98.8513H163.205L162.034 103.263H162.726L163.897 98.8513H165.495L165.015 100.6C164.909 100.976 165.015 101.272 165.282 101.514C165.548 101.756 165.921 101.864 166.373 101.864C166.559 101.864 166.772 101.837 166.985 101.756C167.119 101.729 167.252 101.676 167.411 101.622C167.438 101.837 167.545 102.052 167.704 102.241C167.731 102.294 167.784 102.348 167.837 102.375V102.402C168.104 102.644 168.423 102.832 168.796 102.913L166.426 104.554H167.465L169.248 103.155L170.18 104.554H171.032L169.807 102.967C170.127 102.94 170.393 102.859 170.633 102.752C170.979 102.617 171.325 102.402 171.644 102.079L171.698 102.025L171.165 101.729L171.139 101.756C170.686 102.214 170.127 102.429 169.488 102.429C169.009 102.429 168.636 102.294 168.37 101.998C168.13 101.756 168.05 101.487 168.077 101.191C168.077 101.138 168.104 101.084 168.104 101.03C168.13 100.976 168.13 100.949 168.157 100.896C168.237 100.734 168.37 100.573 168.556 100.465C168.769 100.304 169.035 100.223 169.302 100.223H171.325L171.698 98.7975H173.801L172.629 103.209H173.322L174.493 98.7975H176.809C176.889 98.905 176.969 98.9857 176.995 99.0664C177.102 99.3085 177.155 99.4968 177.102 99.6851C177.022 99.9541 176.889 100.142 176.649 100.277C176.463 100.385 176.223 100.438 175.931 100.438C175.904 100.438 175.851 100.438 175.771 100.411C175.744 100.411 175.691 100.411 175.664 100.385C175.638 100.385 175.584 100.358 175.558 100.358H175.505V100.411C175.398 100.869 175.478 101.272 175.744 101.649C176.01 102.025 176.49 102.214 177.155 102.214H177.182C177.581 102.214 177.954 102.133 178.3 101.998C178.38 101.972 178.486 101.918 178.593 101.864L178.22 103.236H178.939L180.11 98.8244H181.042L181.175 98.3402H174.493C174.52 97.9636 174.44 97.6408 174.333 97.4525ZM177.767 99.1202C177.741 99.0664 177.714 98.9857 177.661 98.8781H179.471L178.859 101.138C178.673 101.299 178.54 101.407 178.433 101.46C178.06 101.676 177.688 101.81 177.315 101.81H177.288C176.809 101.81 176.49 101.676 176.33 101.353C176.277 101.272 176.25 101.138 176.223 100.949C176.49 100.896 176.729 100.842 176.889 100.761C177.395 100.546 177.714 100.223 177.821 99.7658C177.901 99.6044 177.874 99.3623 177.767 99.1202ZM171.99 97.0759C172.15 96.9414 172.337 96.8876 172.603 96.8876C172.789 96.8876 172.949 96.9145 173.082 96.9683C173.375 97.0759 173.588 97.318 173.748 97.6677C173.827 97.8291 173.881 98.0712 173.934 98.394H171.777C171.751 98.3402 171.724 98.2864 171.698 98.2326V98.2057C171.644 97.9905 171.644 97.8022 171.698 97.587C171.751 97.3718 171.857 97.1835 171.99 97.0759ZM167.491 100.976V101.03C167.491 101.084 167.465 101.138 167.465 101.165C167.411 101.191 167.358 101.218 167.278 101.245C167.012 101.353 166.772 101.407 166.506 101.407C166.213 101.407 166 101.326 165.867 101.218C165.734 101.084 165.681 100.922 165.734 100.68L166.08 99.3354L167.491 100.976ZM171.059 98.8781L170.819 99.7927H169.302C168.955 99.7927 168.636 99.8734 168.343 100.035C168.263 100.062 168.21 100.116 168.157 100.169C167.997 100.277 167.891 100.385 167.784 100.519L166.4 98.905H171.059V98.8781ZM147.418 97.4525C147.178 96.9145 146.806 96.5917 146.3 96.4841C146.167 96.4572 145.98 96.4303 145.767 96.4303C145.342 96.4303 144.995 96.5379 144.703 96.7262C144.383 96.9145 144.197 97.2104 144.09 97.587C144.037 97.7753 144.064 97.9905 144.117 98.2326C144.117 98.2864 144.144 98.3402 144.17 98.4209H130.992L130.859 98.905H132.19L131.738 100.6H130.034L130.406 99.2009C130.486 98.9319 130.406 98.7168 130.22 98.5554C130.034 98.394 129.794 98.3133 129.475 98.3133C129.155 98.3133 128.862 98.394 128.596 98.5285C128.33 98.6899 128.17 98.905 128.09 99.2009C128.064 99.3085 128.064 99.4161 128.09 99.5506C128.09 99.6044 128.117 99.6582 128.144 99.712L128.17 99.7389H128.836L128.756 99.6582C128.729 99.6313 128.729 99.6313 128.729 99.6044C128.703 99.4968 128.703 99.3623 128.729 99.2547C128.756 99.1202 128.836 99.0126 128.942 98.9319C129.049 98.8512 129.182 98.8244 129.315 98.8244C129.501 98.8244 129.634 98.8512 129.688 98.9319C129.741 98.9857 129.741 99.0933 129.714 99.2009L129.315 100.68H128.676C128.623 100.68 128.543 100.707 128.436 100.761C128.33 100.815 128.277 100.869 128.25 100.976C128.25 101.03 128.197 101.165 128.676 101.676C129.102 102.133 129.262 102.187 129.342 102.187C129.448 102.187 129.581 102.187 129.634 102.079C129.661 102.025 129.688 101.945 129.688 101.891L129.847 101.245H131.551L130.965 103.424H131.658L132.829 99.0126H134.506L133.335 103.424H134.054L135.225 99.0126H138.766L138.473 100.116C138.42 100.277 138.34 100.411 138.18 100.519C138.02 100.627 137.834 100.68 137.594 100.68C137.461 100.68 137.328 100.654 137.222 100.627C137.089 100.573 137.062 100.519 137.062 100.492L136.769 99.7927L136.13 100.116L136.157 100.169C136.21 100.304 136.263 100.438 136.343 100.6C136.476 100.923 136.663 101.272 136.902 101.703C137.035 101.945 137.222 102.214 137.515 102.617C137.728 102.913 137.941 103.182 138.154 103.424L138.18 103.451L138.792 103.048L138.739 102.994C138.606 102.859 138.5 102.725 138.42 102.644L138.313 102.51C138.127 102.294 137.994 102.106 137.887 101.945L137.408 101.111C137.674 101.165 137.994 101.111 138.34 101.003C138.606 100.923 138.792 100.788 138.926 100.654C139.059 100.519 139.139 100.358 139.192 100.196L139.511 99.0126H144.463L144.197 99.9541H141.854C141.508 99.9541 141.215 100.035 140.975 100.196C140.736 100.358 140.55 100.6 140.47 100.896C140.337 101.434 140.47 101.998 140.922 102.59C141.082 102.805 141.322 103.048 141.614 103.317L141.641 103.343L142.2 102.967L142.147 102.913C141.881 102.671 141.668 102.456 141.535 102.267C141.162 101.783 141.029 101.299 141.162 100.869C141.215 100.707 141.295 100.6 141.428 100.519C141.588 100.438 141.774 100.385 142.04 100.385H144.09L143.292 103.397H143.984L145.155 98.9857H146.832L145.661 103.397H146.353L147.525 98.9857H149.841C149.947 99.0933 150 99.174 150.027 99.2547C150.134 99.4699 150.187 99.6582 150.134 99.8465C150.054 100.116 149.921 100.304 149.708 100.438C149.521 100.546 149.282 100.6 148.989 100.6C148.962 100.6 148.909 100.6 148.829 100.573C148.802 100.573 148.776 100.573 148.749 100.546C148.723 100.546 148.669 100.519 148.643 100.519H148.589V100.573C148.456 101.03 148.536 101.434 148.829 101.81C149.095 102.187 149.574 102.375 150.24 102.375H150.267C150.666 102.375 151.039 102.294 151.411 102.16C151.491 102.133 151.598 102.079 151.704 102.025L151.332 103.397H152.024L153.195 98.9857H154.127L154.26 98.5016H147.578C147.604 97.9636 147.525 97.6408 147.418 97.4525ZM150.852 99.1202C150.826 99.0664 150.799 98.9857 150.746 98.8781H152.53L151.944 101.138C151.757 101.299 151.624 101.407 151.518 101.46C151.145 101.676 150.772 101.81 150.4 101.81H150.373C149.894 101.81 149.574 101.649 149.415 101.353C149.361 101.245 149.335 101.111 149.308 100.949C149.574 100.896 149.814 100.842 149.974 100.761C150.48 100.546 150.772 100.223 150.906 99.7658C150.959 99.6044 150.959 99.3623 150.852 99.1202ZM145.075 97.0759C145.235 96.9414 145.421 96.8876 145.688 96.8876C145.874 96.8876 146.034 96.9145 146.167 96.9683C146.46 97.0759 146.673 97.318 146.832 97.6677C146.912 97.8022 146.965 98.0443 147.019 98.394H144.862C144.836 98.3402 144.809 98.2595 144.782 98.2057C144.729 97.9905 144.729 97.7753 144.782 97.587C144.809 97.3718 144.916 97.1835 145.075 97.0759Z" fill="#434345"/>
<path d="M78.2031 111.924L79.6141 106.759L81.9036 109.799C81.9569 109.88 82.0367 109.987 82.09 110.068C82.1432 110.176 82.2231 110.283 82.2763 110.391L83.2347 106.948H83.9802L82.5692 112.112L80.2264 109.019C80.1732 108.938 80.1199 108.857 80.0401 108.75C79.9868 108.669 79.9336 108.562 79.907 108.454L78.9486 111.924H78.2031ZM87.9735 111.951L87.0151 106.786L83.2081 111.951H84.06L84.9918 110.66H86.9352L87.1482 111.951H87.9735ZM86.2697 108.857C86.3229 108.777 86.3762 108.696 86.4294 108.588C86.4827 108.481 86.5359 108.4 86.5891 108.293C86.5891 108.4 86.5891 108.508 86.5891 108.615C86.5891 108.723 86.5891 108.804 86.6158 108.857L86.8021 109.987H85.4178L86.2697 108.857ZM91.7006 107.647L91.887 106.948H88.4793L88.293 107.647H89.5975L88.4261 111.924H89.2248L90.3961 107.647H91.7006ZM92.1 111.924L93.4577 106.948H92.659L91.3013 111.924H92.1ZM98.7023 109.449C98.8088 109.1 98.8354 108.777 98.7822 108.454C98.7289 108.131 98.6224 107.862 98.4361 107.593C98.2497 107.351 98.0101 107.163 97.7439 107.028C97.451 106.894 97.1582 106.84 96.7855 106.84C96.4394 106.84 96.0667 106.894 95.7206 107.028C95.3745 107.163 95.0284 107.351 94.7089 107.593C94.3895 107.835 94.1233 108.131 93.9103 108.427C93.6973 108.75 93.5376 109.073 93.4311 109.422C93.3246 109.772 93.298 110.122 93.3512 110.418C93.4045 110.74 93.5109 111.009 93.6973 111.252C93.8837 111.494 94.0966 111.682 94.3895 111.816C94.6823 111.951 95.0018 112.005 95.3479 112.005C95.694 112.005 96.0401 111.924 96.4128 111.816C96.7855 111.709 97.105 111.494 97.4244 111.252C97.7439 111.009 98.0101 110.714 98.2231 110.418C98.4361 110.149 98.5958 109.826 98.7023 109.449ZM97.877 109.449C97.7971 109.691 97.6906 109.933 97.5575 110.149C97.3978 110.364 97.2114 110.579 96.9985 110.74C96.7855 110.929 96.5459 111.063 96.3063 111.144C96.0667 111.225 95.8271 111.278 95.5875 111.278C95.3479 111.278 95.1349 111.225 94.9219 111.144C94.7356 111.063 94.5758 110.929 94.4427 110.74C94.3096 110.552 94.2564 110.364 94.2297 110.149C94.2031 109.933 94.2297 109.691 94.283 109.449C94.3629 109.207 94.4693 108.965 94.6291 108.723C94.7888 108.508 94.9752 108.293 95.1881 108.131C95.4011 107.943 95.6407 107.808 95.8803 107.728C96.1199 107.62 96.3595 107.593 96.5991 107.593C96.8387 107.593 97.0517 107.647 97.2647 107.728C97.451 107.835 97.6108 107.943 97.7173 108.131C97.8504 108.319 97.9036 108.508 97.9302 108.723C97.9569 108.965 97.9302 109.207 97.877 109.449ZM99.5276 111.924L100.486 108.454C100.539 108.562 100.566 108.642 100.619 108.75C100.672 108.831 100.726 108.938 100.805 109.019L103.148 112.112L104.559 106.948H103.814L102.855 110.391C102.802 110.256 102.722 110.149 102.669 110.068C102.616 109.96 102.536 109.88 102.483 109.799L100.193 106.759L98.7822 111.924H99.5276ZM108.553 111.951L107.594 106.786L103.787 111.951H104.639L105.571 110.66H107.514L107.727 111.951H108.553ZM106.849 108.857C106.902 108.777 106.955 108.696 107.008 108.588C107.062 108.481 107.115 108.4 107.168 108.293C107.168 108.4 107.168 108.508 107.168 108.615C107.168 108.723 107.168 108.804 107.195 108.857L107.381 109.987H105.997L106.849 108.857ZM111.747 111.924L111.934 111.198H110.15L111.321 106.948H110.523L109.165 111.924H111.747ZM116.3 109.691H116.459C116.805 109.691 117.098 109.664 117.258 109.638C117.444 109.611 117.604 109.53 117.764 109.449C117.95 109.342 118.11 109.18 118.27 108.992C118.403 108.804 118.509 108.588 118.589 108.346C118.642 108.104 118.669 107.889 118.642 107.701C118.616 107.513 118.536 107.351 118.403 107.244C118.296 107.163 118.163 107.082 118.003 107.055C117.844 107.028 117.577 107.001 117.231 107.001H116.007L114.649 111.978H115.394L116.007 109.745H116.3V109.691ZM116.592 107.647H116.805C117.231 107.647 117.498 107.701 117.631 107.808C117.764 107.916 117.79 108.104 117.711 108.373C117.631 108.615 117.524 108.804 117.338 108.884C117.152 108.992 116.859 109.019 116.406 109.019H116.193L116.592 107.647ZM121.597 111.951L120.639 106.786L116.832 111.951H117.657L118.589 110.66H120.533L120.746 111.951H121.597ZM119.894 108.857C119.947 108.777 120 108.696 120.053 108.588C120.107 108.481 120.16 108.4 120.213 108.293C120.213 108.4 120.213 108.508 120.213 108.615C120.213 108.723 120.213 108.804 120.24 108.857L120.426 109.987H119.042L119.894 108.857ZM122.849 111.924L123.488 109.638L125.937 106.948H125.138L123.621 108.615C123.568 108.669 123.514 108.75 123.461 108.804C123.408 108.884 123.355 108.938 123.301 109.019C123.275 108.938 123.275 108.857 123.248 108.804C123.221 108.723 123.221 108.669 123.195 108.642L122.636 106.948H121.784L122.689 109.638L122.05 111.924H122.849ZM129.211 111.924H129.957L130.196 106.732L127.907 109.88C127.88 109.907 127.854 109.96 127.8 110.014C127.641 110.229 127.508 110.418 127.428 110.552C127.401 110.391 127.401 110.229 127.375 110.122C127.348 110.014 127.348 109.933 127.348 109.88L126.762 106.732L124.18 111.924H124.925L126.123 109.476C126.177 109.342 126.23 109.234 126.283 109.126C126.336 109.019 126.363 108.911 126.389 108.804C126.389 108.911 126.389 109.019 126.416 109.126C126.416 109.234 126.443 109.342 126.469 109.449L127.002 112.166L129.025 109.503C129.105 109.395 129.185 109.261 129.265 109.153C129.345 109.046 129.398 108.938 129.451 108.804C129.451 108.911 129.424 109.019 129.398 109.153C129.371 109.315 129.345 109.422 129.345 109.476L129.211 111.924ZM133.498 111.924L133.684 111.198H131.741L132.193 109.584H134.137L134.323 108.884H132.379L132.726 107.647H134.669L134.855 106.975H132.113L130.756 111.951H133.498V111.924ZM135.281 111.924L136.24 108.454C136.293 108.562 136.32 108.642 136.373 108.75C136.426 108.831 136.479 108.938 136.559 109.019L138.902 112.112L140.313 106.948H139.568L138.609 110.391C138.556 110.256 138.476 110.149 138.423 110.068C138.37 109.96 138.29 109.88 138.236 109.799L135.947 106.759L134.536 111.924H135.281ZM144.28 107.647L144.466 106.948H141.058L140.872 107.647H142.176L141.005 111.924H141.804L142.975 107.647H144.28ZM143.854 110.929C143.827 111.278 143.934 111.574 144.147 111.763C144.36 111.951 144.679 112.058 145.105 112.058C145.611 112.058 146.037 111.924 146.409 111.655C146.782 111.386 147.022 111.009 147.155 110.525C147.235 110.202 147.235 109.933 147.102 109.718C146.969 109.503 146.702 109.288 146.276 109.046C146.25 109.046 146.223 109.019 146.196 108.992C145.717 108.723 145.504 108.454 145.584 108.158C145.637 107.97 145.744 107.808 145.904 107.701C146.063 107.593 146.25 107.539 146.463 107.539C146.622 107.539 146.729 107.566 146.835 107.647C146.942 107.728 147.022 107.835 147.075 107.997L147.794 107.674C147.767 107.405 147.661 107.217 147.448 107.055C147.235 106.921 146.969 106.84 146.596 106.84C146.143 106.84 145.771 106.975 145.424 107.217C145.078 107.459 144.865 107.808 144.759 108.212C144.679 108.535 144.679 108.777 144.812 108.992C144.945 109.207 145.238 109.449 145.691 109.718C145.717 109.745 145.771 109.772 145.824 109.799C146.25 110.014 146.409 110.283 146.33 110.579C146.276 110.794 146.143 110.983 145.983 111.117C145.797 111.252 145.611 111.305 145.371 111.305C145.132 111.305 144.919 111.252 144.812 111.117C144.679 111.009 144.626 110.821 144.626 110.606L143.854 110.929ZM154.849 107.351C154.636 107.19 154.423 107.055 154.183 106.975C153.944 106.894 153.677 106.84 153.384 106.84C153.012 106.84 152.666 106.894 152.32 107.028C151.974 107.163 151.627 107.351 151.335 107.593C151.015 107.835 150.749 108.104 150.536 108.427C150.323 108.75 150.163 109.1 150.057 109.449C149.95 109.826 149.924 110.149 149.977 110.471C150.003 110.794 150.11 111.063 150.296 111.305C150.483 111.547 150.696 111.736 150.988 111.843C151.281 111.978 151.601 112.032 151.973 112.032C152.266 112.032 152.559 112.005 152.825 111.924C153.092 111.843 153.358 111.736 153.624 111.574L153.864 110.66C153.571 110.875 153.278 111.036 152.985 111.144C152.692 111.252 152.399 111.305 152.107 111.305C151.601 111.305 151.228 111.144 151.015 110.794C150.776 110.445 150.749 110.014 150.882 109.476C151.042 108.911 151.335 108.481 151.761 108.131C152.186 107.781 152.666 107.62 153.225 107.62C153.491 107.62 153.757 107.674 153.97 107.755C154.183 107.862 154.396 107.997 154.556 108.185L154.849 107.351ZM160.253 109.449C160.36 109.1 160.386 108.777 160.333 108.454C160.28 108.131 160.173 107.862 159.987 107.593C159.8 107.351 159.561 107.163 159.295 107.028C159.002 106.894 158.709 106.84 158.336 106.84C157.99 106.84 157.617 106.894 157.271 107.028C156.925 107.163 156.579 107.351 156.26 107.593C155.94 107.835 155.674 108.131 155.461 108.427C155.248 108.75 155.088 109.073 154.982 109.422C154.875 109.772 154.849 110.122 154.902 110.418C154.955 110.74 155.062 111.009 155.248 111.252C155.434 111.494 155.647 111.682 155.94 111.816C156.233 111.951 156.553 112.005 156.899 112.005C157.245 112.005 157.591 111.924 157.964 111.816C158.336 111.709 158.656 111.494 158.975 111.252C159.295 111.009 159.561 110.714 159.774 110.418C159.987 110.149 160.147 109.826 160.253 109.449ZM159.428 109.449C159.348 109.691 159.241 109.933 159.108 110.149C158.949 110.364 158.762 110.579 158.549 110.74C158.336 110.929 158.097 111.063 157.857 111.144C157.617 111.225 157.378 111.278 157.138 111.278C156.899 111.278 156.686 111.225 156.473 111.144C156.286 111.063 156.127 110.929 155.993 110.74C155.86 110.552 155.807 110.364 155.78 110.149C155.754 109.933 155.78 109.691 155.834 109.449C155.914 109.207 156.02 108.965 156.18 108.723C156.34 108.508 156.526 108.293 156.739 108.131C156.952 107.943 157.191 107.808 157.431 107.728C157.671 107.62 157.91 107.593 158.15 107.593C158.389 107.593 158.602 107.647 158.815 107.728C159.002 107.835 159.162 107.943 159.268 108.131C159.401 108.319 159.454 108.508 159.481 108.723C159.508 108.965 159.481 109.207 159.428 109.449ZM161.93 109.718L162.942 111.951H163.847L162.782 109.691C163.155 109.638 163.474 109.503 163.741 109.288C163.98 109.073 164.167 108.75 164.273 108.346C164.326 108.131 164.353 107.916 164.326 107.728C164.3 107.539 164.22 107.378 164.113 107.27C164.007 107.163 163.874 107.109 163.714 107.055C163.554 107.001 163.288 107.001 162.969 107.001H161.85L160.493 111.978H161.238L161.85 109.745H161.93V109.718ZM162.463 107.647H162.596C162.995 107.647 163.261 107.701 163.368 107.808C163.474 107.916 163.501 108.104 163.421 108.4C163.341 108.642 163.235 108.831 163.075 108.938C162.915 109.046 162.622 109.1 162.196 109.1H162.063L162.463 107.647ZM166.163 109.691H166.323C166.669 109.691 166.962 109.664 167.122 109.638C167.308 109.611 167.468 109.53 167.627 109.449C167.814 109.342 167.974 109.18 168.133 108.992C168.266 108.804 168.373 108.588 168.453 108.346C168.533 108.104 168.533 107.889 168.506 107.701C168.479 107.513 168.399 107.351 168.266 107.244C168.16 107.163 168.027 107.082 167.867 107.055C167.707 107.028 167.441 107.001 167.095 107.001H165.844L164.486 111.978H165.231L165.844 109.745H166.163V109.691ZM166.456 107.647H166.669C167.095 107.647 167.361 107.701 167.494 107.808C167.627 107.916 167.654 108.104 167.574 108.373C167.494 108.615 167.388 108.804 167.201 108.884C167.015 108.992 166.722 109.019 166.27 109.019H166.057L166.456 107.647ZM173.884 109.449C173.99 109.1 174.017 108.777 173.964 108.454C173.91 108.131 173.804 107.862 173.617 107.593C173.431 107.351 173.191 107.163 172.925 107.028C172.632 106.894 172.313 106.84 171.967 106.84C171.621 106.84 171.248 106.894 170.902 107.028C170.556 107.163 170.21 107.351 169.89 107.593C169.571 107.835 169.305 108.131 169.092 108.427C168.879 108.75 168.719 109.073 168.612 109.422C168.506 109.772 168.479 110.122 168.533 110.418C168.586 110.74 168.692 111.009 168.879 111.252C169.065 111.494 169.278 111.682 169.571 111.816C169.864 111.951 170.183 112.005 170.529 112.005C170.875 112.005 171.221 111.924 171.594 111.816C171.967 111.709 172.286 111.494 172.606 111.252C172.925 111.009 173.191 110.714 173.404 110.418C173.617 110.149 173.777 109.826 173.884 109.449ZM173.058 109.449C172.978 109.691 172.872 109.933 172.739 110.149C172.579 110.364 172.393 110.579 172.18 110.74C171.967 110.929 171.727 111.063 171.488 111.144C171.248 111.225 171.008 111.278 170.769 111.278C170.529 111.278 170.316 111.225 170.103 111.144C169.917 111.063 169.757 110.929 169.624 110.74C169.491 110.552 169.438 110.364 169.411 110.149C169.384 109.933 169.411 109.691 169.464 109.449C169.544 109.207 169.651 108.965 169.81 108.723C169.97 108.508 170.157 108.293 170.37 108.131C170.582 107.943 170.822 107.808 171.062 107.728C171.301 107.62 171.541 107.593 171.78 107.593C172.02 107.593 172.233 107.647 172.446 107.728C172.632 107.835 172.792 107.943 172.899 108.131C173.032 108.319 173.085 108.508 173.112 108.723C173.138 108.965 173.112 109.207 173.058 109.449ZM175.295 109.718L176.333 111.951H177.238L176.173 109.691C176.546 109.638 176.865 109.503 177.132 109.288C177.398 109.073 177.558 108.75 177.664 108.346C177.717 108.131 177.744 107.916 177.717 107.728C177.691 107.539 177.611 107.378 177.504 107.27C177.398 107.163 177.265 107.109 177.105 107.055C176.945 107.001 176.679 107.001 176.36 107.001H175.241L173.884 111.978H174.629L175.241 109.745H175.295V109.718ZM175.827 107.647H175.96C176.36 107.647 176.626 107.701 176.732 107.808C176.839 107.916 176.865 108.104 176.785 108.4C176.706 108.642 176.599 108.831 176.439 108.938C176.28 109.046 175.987 109.1 175.561 109.1H175.428L175.827 107.647ZM182.083 111.951L181.125 106.786L177.318 111.951H178.17L179.102 110.66H181.045L181.258 111.951H182.083ZM180.379 108.857C180.433 108.777 180.486 108.696 180.539 108.588C180.592 108.481 180.646 108.4 180.699 108.293C180.699 108.4 180.699 108.508 180.699 108.615C180.699 108.723 180.699 108.804 180.726 108.857L180.912 109.987H179.528L180.379 108.857ZM185.81 107.647L185.997 106.948H182.589L182.403 107.647H183.707L182.536 111.924H183.335L184.506 107.647H185.81ZM186.21 111.924L187.568 106.948H186.769L185.411 111.924H186.21ZM192.812 109.449C192.919 109.1 192.945 108.777 192.892 108.454C192.839 108.131 192.732 107.862 192.546 107.593C192.36 107.351 192.12 107.163 191.854 107.028C191.561 106.894 191.268 106.84 190.895 106.84C190.549 106.84 190.176 106.894 189.83 107.028C189.484 107.163 189.138 107.351 188.819 107.593C188.499 107.835 188.233 108.131 188.02 108.427C187.807 108.75 187.647 109.073 187.541 109.422C187.434 109.772 187.408 110.122 187.461 110.418C187.514 110.74 187.621 111.009 187.807 111.252C187.993 111.494 188.206 111.682 188.499 111.816C188.792 111.951 189.112 112.005 189.458 112.005C189.804 112.005 190.15 111.924 190.523 111.816C190.895 111.709 191.215 111.494 191.534 111.252C191.854 111.009 192.12 110.714 192.333 110.418C192.546 110.149 192.706 109.826 192.812 109.449ZM191.96 109.449C191.88 109.691 191.774 109.933 191.641 110.149C191.481 110.364 191.295 110.579 191.082 110.74C190.869 110.929 190.629 111.063 190.389 111.144C190.15 111.225 189.91 111.278 189.671 111.278C189.431 111.278 189.218 111.225 189.005 111.144C188.819 111.063 188.659 110.929 188.526 110.74C188.393 110.552 188.34 110.364 188.313 110.149C188.286 109.933 188.313 109.691 188.366 109.449C188.446 109.207 188.553 108.965 188.712 108.723C188.872 108.508 189.058 108.293 189.271 108.131C189.484 107.943 189.724 107.808 189.964 107.728C190.203 107.62 190.443 107.593 190.682 107.593C190.922 107.593 191.135 107.647 191.348 107.728C191.534 107.835 191.694 107.943 191.8 108.131C191.934 108.319 191.987 108.508 192.013 108.723C192.067 108.965 192.04 109.207 191.96 109.449ZM193.504 111.924L194.463 108.454C194.516 108.562 194.543 108.642 194.596 108.75C194.649 108.831 194.702 108.938 194.782 109.019L197.125 112.112L198.536 106.948H197.79L196.832 110.391C196.779 110.256 196.699 110.149 196.646 110.068C196.592 109.96 196.513 109.88 196.459 109.799L194.17 106.759L192.759 111.924H193.504ZM205.564 109.449C205.671 109.1 205.697 108.777 205.644 108.454C205.591 108.131 205.484 107.862 205.298 107.593C205.112 107.351 204.872 107.163 204.606 107.028C204.313 106.894 204.02 106.84 203.647 106.84C203.301 106.84 202.929 106.894 202.582 107.028C202.236 107.163 201.89 107.351 201.571 107.593C201.251 107.835 200.985 108.131 200.772 108.427C200.559 108.75 200.399 109.073 200.293 109.422C200.186 109.772 200.16 110.122 200.213 110.418C200.266 110.74 200.373 111.009 200.559 111.252C200.746 111.494 200.959 111.682 201.251 111.816C201.544 111.951 201.864 112.005 202.21 112.005C202.556 112.005 202.902 111.924 203.275 111.816C203.647 111.709 203.967 111.494 204.286 111.252C204.606 111.009 204.872 110.714 205.085 110.418C205.298 110.149 205.458 109.826 205.564 109.449ZM204.712 109.449C204.632 109.691 204.526 109.933 204.393 110.149C204.233 110.364 204.047 110.579 203.834 110.74C203.621 110.929 203.381 111.063 203.142 111.144C202.902 111.225 202.662 111.278 202.423 111.278C202.183 111.278 201.97 111.225 201.757 111.144C201.571 111.063 201.411 110.929 201.278 110.74C201.145 110.552 201.092 110.364 201.065 110.149C201.038 109.933 201.065 109.691 201.118 109.449C201.198 109.207 201.305 108.965 201.464 108.723C201.624 108.508 201.81 108.293 202.023 108.131C202.236 107.943 202.476 107.808 202.716 107.728C202.955 107.62 203.195 107.593 203.434 107.593C203.674 107.593 203.887 107.647 204.1 107.728C204.286 107.835 204.446 107.943 204.553 108.131C204.686 108.319 204.739 108.508 204.766 108.723C204.819 108.965 204.792 109.207 204.712 109.449ZM206.31 111.924L206.949 109.584H208.892L209.078 108.884H207.135L207.481 107.647H209.424L209.611 106.975H206.869L205.511 111.951H206.31V111.924ZM212.033 111.924L213.391 106.948H212.592L211.235 111.924H212.033ZM213.498 111.924L214.456 108.454C214.509 108.562 214.536 108.642 214.589 108.75C214.642 108.831 214.696 108.938 214.775 109.019L217.118 112.112L218.529 106.948H217.784L216.825 110.391C216.772 110.256 216.692 110.149 216.639 110.068C216.586 109.96 216.506 109.88 216.453 109.799L214.163 106.759L212.752 111.924H213.498ZM219.088 111.924H219.301C219.887 111.924 220.313 111.897 220.606 111.816C220.899 111.736 221.191 111.628 221.431 111.467C221.777 111.252 222.07 110.956 222.31 110.633C222.549 110.283 222.736 109.907 222.842 109.449C222.975 109.019 223.002 108.615 222.949 108.266C222.895 107.916 222.762 107.647 222.523 107.432C222.363 107.27 222.123 107.136 221.857 107.082C221.591 107.001 221.112 106.975 220.393 106.975H219.301L217.944 111.951H219.088V111.924ZM219.993 107.674H220.286H220.579C221.005 107.674 221.298 107.701 221.458 107.755C221.644 107.808 221.777 107.889 221.884 107.997C222.017 108.158 222.123 108.346 222.15 108.588C222.176 108.831 222.15 109.1 222.07 109.422C221.99 109.745 221.857 110.014 221.697 110.256C221.538 110.498 221.351 110.687 221.112 110.848C220.952 110.956 220.766 111.063 220.553 111.09C220.366 111.144 220.073 111.171 219.701 111.171H219.035L219.993 107.674ZM223.508 111.924L224.865 106.948H224.067L222.709 111.924H223.508ZM228.752 111.951L227.794 106.786L223.987 111.951H224.839L225.771 110.66H227.714L227.927 111.951H228.752ZM227.048 108.857C227.102 108.777 227.155 108.696 227.208 108.588C227.261 108.481 227.315 108.4 227.368 108.293C227.368 108.4 227.368 108.508 227.368 108.615C227.368 108.723 227.368 108.804 227.394 108.857L227.581 109.987H226.196L227.048 108.857Z" fill="#434345"/>
</g>
<defs>
<clipPath id="clip0_122_3892">
<rect width="160" height="50" fill="white" transform="translate(78 62.5)"/>
</clipPath>
</defs>
</svg>
