<svg width="64" height="64" viewBox="0 0 64 64" fill="none" xmlns="http://www.w3.org/2000/svg">
<g filter="url(#filter0_i_0_2098)">
<path d="M50.1333 0.00195312H13.8667C6.20832 0.00195312 0 6.21027 0 13.8686V50.1353C0 57.7936 6.20832 64.002 13.8667 64.002H50.1333C57.7917 64.002 64 57.7936 64 50.1353V13.8686C64 6.21027 57.7917 0.00195312 50.1333 0.00195312Z" fill="#1B1D21"/>
<path d="M13.8667 0.335286H50.1333C57.6076 0.335286 63.6667 6.39437 63.6667 13.8686V50.1353C63.6667 57.6095 57.6076 63.6686 50.1333 63.6686H13.8667C6.39241 63.6686 0.333333 57.6095 0.333333 50.1353V13.8686C0.333333 6.39437 6.39241 0.335286 13.8667 0.335286Z" stroke="#404759" stroke-opacity="0.4" stroke-width="0.666667"/>
<path fill-rule="evenodd" clip-rule="evenodd" d="M20.4275 15.8984C21.3995 15.8984 22.1875 16.6864 22.1875 17.6584L22.1875 45.818C22.1875 46.79 21.3995 47.5779 20.4275 47.5779C19.4555 47.5779 18.6676 46.79 18.6676 45.818L18.6676 17.6584C18.6676 16.6864 19.4555 15.8984 20.4275 15.8984Z" fill="url(#paint0_linear_0_2098)"/>
<path fill-rule="evenodd" clip-rule="evenodd" d="M32.158 15.8984C33.13 15.8984 33.918 16.6864 33.918 17.6584L33.918 45.818C33.918 46.79 33.13 47.5779 32.158 47.5779C31.186 47.5779 30.398 46.79 30.398 45.818L30.398 17.6584C30.398 16.6864 31.186 15.8984 32.158 15.8984Z" fill="url(#paint1_linear_0_2098)"/>
<path fill-rule="evenodd" clip-rule="evenodd" d="M43.8924 15.8984C44.8644 15.8984 45.6523 16.6864 45.6523 17.6584L45.6523 45.818C45.6523 46.79 44.8644 47.5779 43.8924 47.5779C42.9204 47.5779 42.1324 46.79 42.1324 45.818L42.1324 17.6584C42.1324 16.6864 42.9204 15.8984 43.8924 15.8984Z" fill="url(#paint2_linear_0_2098)"/>
<g filter="url(#filter1_b_0_2098)">
<circle cx="20.4239" cy="38.7792" r="4.69326" transform="rotate(90 20.4239 38.7792)" fill="#B5FFC5" fill-opacity="0.6"/>
<circle cx="20.4239" cy="38.7792" r="4.57593" transform="rotate(90 20.4239 38.7792)" stroke="url(#paint3_linear_0_2098)" stroke-width="0.234663"/>
</g>
<g filter="url(#filter2_b_0_2098)">
<circle cx="32.1583" cy="24.6972" r="4.69326" transform="rotate(90 32.1583 24.6972)" fill="#B5FFC5" fill-opacity="0.6"/>
<circle cx="32.1583" cy="24.6972" r="4.57593" transform="rotate(90 32.1583 24.6972)" stroke="url(#paint4_linear_0_2098)" stroke-width="0.234663"/>
</g>
<g filter="url(#filter3_b_0_2098)">
<circle cx="43.8927" cy="38.7792" r="4.69326" transform="rotate(90 43.8927 38.7792)" fill="#B5FFC5" fill-opacity="0.6"/>
<circle cx="43.8927" cy="38.7792" r="4.57593" transform="rotate(90 43.8927 38.7792)" stroke="url(#paint5_linear_0_2098)" stroke-width="0.234663"/>
</g>
</g>
<defs>
<filter id="filter0_i_0_2098" x="0" y="0" width="65.3333" height="65.3353" filterUnits="userSpaceOnUse" color-interpolation-filters="sRGB">
<feFlood flood-opacity="0" result="BackgroundImageFix"/>
<feBlend mode="normal" in="SourceGraphic" in2="BackgroundImageFix" result="shape"/>
<feColorMatrix in="SourceAlpha" type="matrix" values="0 0 0 0 0 0 0 0 0 0 0 0 0 0 0 0 0 0 127 0" result="hardAlpha"/>
<feOffset dx="1.33333" dy="1.33333"/>
<feGaussianBlur stdDeviation="1.33333"/>
<feComposite in2="hardAlpha" operator="arithmetic" k2="-1" k3="1"/>
<feColorMatrix type="matrix" values="0 0 0 0 0 0 0 0 0 0 0 0 0 0 0 0 0 0 0.25 0"/>
<feBlend mode="normal" in2="shape" result="effect1_innerShadow_0_2098"/>
</filter>
<filter id="filter1_b_0_2098" x="11.0375" y="29.3927" width="18.773" height="18.773" filterUnits="userSpaceOnUse" color-interpolation-filters="sRGB">
<feFlood flood-opacity="0" result="BackgroundImageFix"/>
<feGaussianBlur in="BackgroundImageFix" stdDeviation="2.34663"/>
<feComposite in2="SourceAlpha" operator="in" result="effect1_backgroundBlur_0_2098"/>
<feBlend mode="normal" in="SourceGraphic" in2="effect1_backgroundBlur_0_2098" result="shape"/>
</filter>
<filter id="filter2_b_0_2098" x="22.7718" y="15.3106" width="18.773" height="18.773" filterUnits="userSpaceOnUse" color-interpolation-filters="sRGB">
<feFlood flood-opacity="0" result="BackgroundImageFix"/>
<feGaussianBlur in="BackgroundImageFix" stdDeviation="2.34663"/>
<feComposite in2="SourceAlpha" operator="in" result="effect1_backgroundBlur_0_2098"/>
<feBlend mode="normal" in="SourceGraphic" in2="effect1_backgroundBlur_0_2098" result="shape"/>
</filter>
<filter id="filter3_b_0_2098" x="34.5062" y="29.3927" width="18.773" height="18.773" filterUnits="userSpaceOnUse" color-interpolation-filters="sRGB">
<feFlood flood-opacity="0" result="BackgroundImageFix"/>
<feGaussianBlur in="BackgroundImageFix" stdDeviation="2.34663"/>
<feComposite in2="SourceAlpha" operator="in" result="effect1_backgroundBlur_0_2098"/>
<feBlend mode="normal" in="SourceGraphic" in2="effect1_backgroundBlur_0_2098" result="shape"/>
</filter>
<linearGradient id="paint0_linear_0_2098" x1="21.4175" y1="25.0368" x2="13.4652" y2="27.6061" gradientUnits="userSpaceOnUse">
<stop stop-color="#D3FB7F"/>
<stop offset="1" stop-color="#2DAF41"/>
</linearGradient>
<linearGradient id="paint1_linear_0_2098" x1="33.148" y1="25.0368" x2="25.1957" y2="27.6061" gradientUnits="userSpaceOnUse">
<stop stop-color="#D3FB7F"/>
<stop offset="1" stop-color="#2DAF41"/>
</linearGradient>
<linearGradient id="paint2_linear_0_2098" x1="44.8824" y1="25.0368" x2="36.93" y2="27.6061" gradientUnits="userSpaceOnUse">
<stop stop-color="#D3FB7F"/>
<stop offset="1" stop-color="#2DAF41"/>
</linearGradient>
<linearGradient id="paint3_linear_0_2098" x1="14.5574" y1="45.8191" x2="23.9439" y2="35.2593" gradientUnits="userSpaceOnUse">
<stop stop-color="white"/>
<stop offset="1" stop-color="white" stop-opacity="0"/>
</linearGradient>
<linearGradient id="paint4_linear_0_2098" x1="26.2917" y1="31.737" x2="35.6782" y2="21.1772" gradientUnits="userSpaceOnUse">
<stop stop-color="white"/>
<stop offset="1" stop-color="white" stop-opacity="0"/>
</linearGradient>
<linearGradient id="paint5_linear_0_2098" x1="38.0261" y1="45.8191" x2="47.4126" y2="35.2593" gradientUnits="userSpaceOnUse">
<stop stop-color="white"/>
<stop offset="1" stop-color="white" stop-opacity="0"/>
</linearGradient>
</defs>
</svg>
