<svg width="64" height="65" viewBox="0 0 64 65" fill="none" xmlns="http://www.w3.org/2000/svg">
<g filter="url(#filter0_i_0_2141)">
<path d="M50.1333 0.752563H13.8667C6.20832 0.752563 0 6.96088 0 14.6192V50.8859C0 58.5442 6.20832 64.7526 13.8667 64.7526H50.1333C57.7917 64.7526 64 58.5442 64 50.8859V14.6192C64 6.96088 57.7917 0.752563 50.1333 0.752563Z" fill="#1B1D21"/>
<path d="M13.8667 1.0859H50.1333C57.6076 1.0859 63.6667 7.14498 63.6667 14.6192V50.8859C63.6667 58.3602 57.6076 64.4192 50.1333 64.4192H13.8667C6.39241 64.4192 0.333333 58.3602 0.333333 50.8859V14.6192C0.333333 7.14498 6.39241 1.0859 13.8667 1.0859Z" stroke="#404759" stroke-opacity="0.4" stroke-width="0.666667"/>
<g clip-path="url(#clip0_0_2141)">
<path d="M31.9973 12.3307V15.4076C22.6973 15.4076 15.0742 23.0307 15.0742 32.3307C15.0742 41.6307 22.6973 49.2538 31.9973 49.2538C41.2973 49.2538 48.9204 41.6307 48.9204 32.3307C48.9204 27.7968 47.2127 23.6999 44.1604 20.6476L41.9973 22.8122C44.485 25.2968 45.8435 28.5553 45.8435 32.3307C45.8435 39.9538 39.6204 46.1768 31.9973 46.1768C24.3742 46.1768 18.1511 39.9538 18.1511 32.3307C18.1511 24.7076 24.3742 18.4845 31.9973 18.4845V21.5615L39.6896 16.9461L31.9973 12.3307Z" fill="url(#paint0_linear_0_2141)"/>
<path d="M31.7317 31.4345L32.3201 31.2746L32.5927 30.7293L35.8387 24.2373L36.1664 24.3956L32.8993 30.8497L32.6216 31.3983L32.8494 31.9694C32.9262 32.1619 32.9448 32.2745 32.9448 32.331V32.4279V32.9922L33.3439 33.3912L37.3328 37.3789L37.047 37.6647L33.0593 33.6758L32.6603 33.2767H32.096H31.9991C31.7483 33.2767 31.5078 33.1771 31.3304 32.9997C31.1531 32.8224 31.0534 32.5818 31.0534 32.331L31.0534 32.3256C31.0526 32.1231 31.1186 31.926 31.2413 31.7649C31.364 31.6038 31.5364 31.4877 31.7317 31.4345Z" fill="#B5FFC5" fill-opacity="0.6" stroke="url(#paint1_linear_0_2141)" stroke-width="2.72398"/>
</g>
</g>
<defs>
<filter id="filter0_i_0_2141" x="0" y="0.752563" width="65.3333" height="65.3333" filterUnits="userSpaceOnUse" color-interpolation-filters="sRGB">
<feFlood flood-opacity="0" result="BackgroundImageFix"/>
<feBlend mode="normal" in="SourceGraphic" in2="BackgroundImageFix" result="shape"/>
<feColorMatrix in="SourceAlpha" type="matrix" values="0 0 0 0 0 0 0 0 0 0 0 0 0 0 0 0 0 0 127 0" result="hardAlpha"/>
<feOffset dx="1.33333" dy="1.33333"/>
<feGaussianBlur stdDeviation="1.33333"/>
<feComposite in2="hardAlpha" operator="arithmetic" k2="-1" k3="1"/>
<feColorMatrix type="matrix" values="0 0 0 0 0 0 0 0 0 0 0 0 0 0 0 0 0 0 0.25 0"/>
<feBlend mode="normal" in2="shape" result="effect1_innerShadow_0_2141"/>
</filter>
<linearGradient id="paint0_linear_0_2141" x1="31.9973" y1="12.3307" x2="31.9973" y2="49.2538" gradientUnits="userSpaceOnUse">
<stop stop-color="#C8F962"/>
<stop offset="1" stop-color="#2DAF41"/>
</linearGradient>
<linearGradient id="paint1_linear_0_2141" x1="28.4954" y1="43.8822" x2="44.0541" y2="34.1256" gradientUnits="userSpaceOnUse">
<stop stop-color="white"/>
<stop offset="1" stop-color="white" stop-opacity="0"/>
</linearGradient>
<clipPath id="clip0_0_2141">
<rect width="40" height="40" fill="white" transform="translate(12 12.3307)"/>
</clipPath>
</defs>
</svg>
