<svg width="65" height="64" viewBox="0 0 65 64" fill="none" xmlns="http://www.w3.org/2000/svg">
<g filter="url(#filter0_i_0_2119)">
<path d="M50.6145 0.00195312H14.3479C6.68952 0.00195312 0.481201 6.21027 0.481201 13.8686V50.1353C0.481201 57.7936 6.68952 64.002 14.3479 64.002H50.6145C58.2729 64.002 64.4812 57.7936 64.4812 50.1353V13.8686C64.4812 6.21027 58.2729 0.00195312 50.6145 0.00195312Z" fill="#1B1D21"/>
<path d="M14.3479 0.335286H50.6145C58.0888 0.335286 64.1479 6.39437 64.1479 13.8686V50.1353C64.1479 57.6095 58.0888 63.6686 50.6145 63.6686H14.3479C6.87361 63.6686 0.814534 57.6095 0.814534 50.1353V13.8686C0.814534 6.39437 6.87361 0.335286 14.3479 0.335286Z" stroke="#404759" stroke-opacity="0.4" stroke-width="0.666667"/>
<path d="M46.3872 30.6692C46.4492 31.1472 46.4812 31.6552 46.4812 32.1952C46.4812 35.2652 45.5512 37.3292 44.6612 38.6112C44.3096 39.1201 43.9002 39.5866 43.4412 40.0012C43.2912 40.1355 43.1337 40.2611 42.9692 40.3772L42.9512 40.3892C42.8074 40.4791 42.6888 40.6041 42.6066 40.7524C42.5243 40.9008 42.4812 41.0676 42.4812 41.2372V44.5792C42.4812 44.8444 42.3758 45.0988 42.1883 45.2863C42.0008 45.4738 41.7464 45.5792 41.4812 45.5792H38.7132C38.6517 45.5792 38.5927 45.5547 38.5492 45.5112C38.5056 45.4677 38.4812 45.4087 38.4812 45.3472C38.4812 44.1132 37.4812 43.1132 36.2492 43.1132H32.7132C31.4812 43.1132 30.4812 44.1132 30.4812 45.3472C30.4812 45.4087 30.4568 45.4677 30.4132 45.5112C30.3697 45.5547 30.3107 45.5792 30.2492 45.5792H27.4812C27.216 45.5792 26.9616 45.4738 26.7741 45.2863C26.5866 45.0988 26.4812 44.8444 26.4812 44.5792V42.8792C26.4806 42.6697 26.4143 42.4658 26.2916 42.296C26.1688 42.1263 25.9959 41.9994 25.7972 41.9332L25.7172 41.8952C25.5584 41.8171 25.4047 41.7289 25.2572 41.6312C24.8172 41.3472 24.1232 40.8192 23.1932 39.8772C22.3543 39.0137 21.6788 38.0054 21.1992 36.9012C20.8312 36.0572 20.0612 35.3152 19.0312 35.1412C18.8779 35.1153 18.7386 35.0361 18.638 34.9175C18.5374 34.799 18.4819 34.6487 18.4812 34.4932V31.4792C18.4812 31.342 18.5298 31.2093 18.6184 31.1045C18.707 30.9998 18.8299 30.9299 18.9652 30.9072C20.0652 30.7212 20.8452 29.8792 21.1492 28.9512C21.4092 28.1552 21.8772 27.1112 22.6532 26.3252C23.3076 25.6726 24.0398 25.103 24.8332 24.6292C25.1511 24.438 25.4782 24.2625 25.8132 24.1032L25.8652 24.0792L25.8752 24.0752C26.0555 23.9979 26.2091 23.8693 26.3169 23.7053C26.4246 23.5414 26.4818 23.3494 26.4812 23.1532V18.9592C26.9872 19.3992 27.5772 19.8752 28.2132 20.2992C29.0812 20.8832 30.1152 21.4312 31.1772 21.6292C31.4227 20.9622 31.7449 20.3259 32.1372 19.7332C32.0152 19.7202 31.8932 19.7076 31.7712 19.6952C31.0612 19.6232 30.2072 19.2292 29.3252 18.6392C28.5311 18.0931 27.785 17.4802 27.0952 16.8072C26.8793 16.6012 26.6084 16.4623 26.3152 16.4073C26.0219 16.3523 25.719 16.3835 25.4432 16.4972C25.1601 16.6083 24.917 16.802 24.7455 17.0531C24.5739 17.3042 24.4818 17.6011 24.4812 17.9052V22.5332C23.2862 23.1649 22.1905 23.9689 21.2292 24.9192C20.1432 26.0192 19.5532 27.3992 19.2492 28.3292C19.1292 28.6852 18.8692 28.8952 18.6332 28.9352C18.032 29.0363 17.486 29.3471 17.0921 29.8124C16.6981 30.2777 16.4817 30.8675 16.4812 31.4772V34.4912C16.4809 35.1199 16.7033 35.7284 17.1089 36.2088C17.5146 36.6891 18.0773 37.0102 18.6972 37.1152C18.9472 37.1552 19.2172 37.3592 19.3652 37.7012C19.9432 39.0302 20.7578 40.2432 21.7692 41.2812C22.7872 42.3132 23.5912 42.9352 24.1672 43.3092C24.2812 43.3832 24.3872 43.4472 24.4812 43.5032V44.5792C24.4812 44.9732 24.5588 45.3633 24.7096 45.7272C24.8603 46.0912 25.0813 46.4219 25.3599 46.7005C25.6385 46.9791 25.9692 47.2001 26.3332 47.3508C26.6971 47.5016 27.0872 47.5792 27.4812 47.5792H30.2492C31.4812 47.5792 32.4812 46.5792 32.4812 45.3472C32.4812 45.2172 32.5852 45.1132 32.7132 45.1132H36.2492C36.3772 45.1132 36.4812 45.2172 36.4812 45.3472C36.4812 46.5792 37.4812 47.5792 38.7132 47.5792H41.4812C42.2768 47.5792 43.0399 47.2631 43.6025 46.7005C44.1651 46.1379 44.4812 45.3748 44.4812 44.5792V41.7412C45.1756 41.1645 45.7879 40.4957 46.3012 39.7532C47.4112 38.1592 48.4812 35.7012 48.4812 32.1952C48.4812 30.7432 48.2792 29.4432 47.8952 28.2812C47.521 29.1514 47.0121 29.9573 46.3872 30.6692ZM25.9812 30.5792C26.379 30.5792 26.7606 30.4212 27.0419 30.1398C27.3232 29.8585 27.4812 29.477 27.4812 29.0792C27.4812 28.6814 27.3232 28.2998 27.0419 28.0185C26.7606 27.7372 26.379 27.5792 25.9812 27.5792C25.5834 27.5792 25.2018 27.7372 24.9205 28.0185C24.6392 28.2998 24.4812 28.6814 24.4812 29.0792C24.4812 29.477 24.6392 29.8585 24.9205 30.1398C25.2018 30.4212 25.5834 30.5792 25.9812 30.5792Z" fill="url(#paint0_linear_0_2119)"/>
<path d="M41.2117 29.4832L41.2116 29.4832L35.1317 26.9652C35.1317 26.9652 35.1316 26.9652 35.1316 26.9652C34.3713 26.6502 33.9318 26.1402 33.8496 25.6285C33.6343 24.2187 33.9418 22.7789 34.714 21.5799C35.4869 20.38 36.6719 19.5043 38.0458 19.1176C39.4197 18.731 40.8876 18.8603 42.1727 19.481C43.4578 20.1017 44.4728 21.1706 45.024 22.4853C45.5244 23.6964 45.6036 25.0404 45.2487 26.3018C44.8937 27.5635 44.1252 28.6693 43.0665 29.4418C42.6438 29.7479 41.971 29.7978 41.2117 29.4832Z" fill="#B5FFC5" fill-opacity="0.6" stroke="url(#paint1_linear_0_2119)" stroke-width="2.30588"/>
</g>
<defs>
<filter id="filter0_i_0_2119" x="0.481201" y="0" width="65.3333" height="65.3353" filterUnits="userSpaceOnUse" color-interpolation-filters="sRGB">
<feFlood flood-opacity="0" result="BackgroundImageFix"/>
<feBlend mode="normal" in="SourceGraphic" in2="BackgroundImageFix" result="shape"/>
<feColorMatrix in="SourceAlpha" type="matrix" values="0 0 0 0 0 0 0 0 0 0 0 0 0 0 0 0 0 0 127 0" result="hardAlpha"/>
<feOffset dx="1.33333" dy="1.33333"/>
<feGaussianBlur stdDeviation="1.33333"/>
<feComposite in2="hardAlpha" operator="arithmetic" k2="-1" k3="1"/>
<feColorMatrix type="matrix" values="0 0 0 0 0 0 0 0 0 0 0 0 0 0 0 0 0 0 0.25 0"/>
<feBlend mode="normal" in2="shape" result="effect1_innerShadow_0_2119"/>
</filter>
<linearGradient id="paint0_linear_0_2119" x1="32.4812" y1="16.3809" x2="32.4812" y2="47.5792" gradientUnits="userSpaceOnUse">
<stop stop-color="#D6FF60"/>
<stop offset="1" stop-color="#115D0A"/>
</linearGradient>
<linearGradient id="paint1_linear_0_2119" x1="30.8808" y1="34.1249" x2="43.8563" y2="18.5389" gradientUnits="userSpaceOnUse">
<stop stop-color="white"/>
<stop offset="1" stop-color="white" stop-opacity="0"/>
</linearGradient>
</defs>
</svg>
