<svg width="65" height="65" viewBox="0 0 65 65" fill="none" xmlns="http://www.w3.org/2000/svg">
<g filter="url(#filter0_i_0_2195)">
<path d="M50.7381 0.923096H14.4714C6.81305 0.923096 0.604736 7.13141 0.604736 14.7898V51.0564C0.604736 58.7148 6.81305 64.9231 14.4714 64.9231H50.7381C58.3964 64.9231 64.6047 58.7148 64.6047 51.0564V14.7898C64.6047 7.13141 58.3964 0.923096 50.7381 0.923096Z" fill="#1B1D21"/>
<path d="M14.4714 1.34285H50.7381C58.1646 1.34285 64.185 7.36324 64.185 14.7898V51.0564C64.185 58.483 58.1646 64.5033 50.7381 64.5033H14.4714C7.04488 64.5033 1.02449 58.483 1.02449 51.0564V14.7898C1.02449 7.36324 7.04488 1.34285 14.4714 1.34285Z" stroke="#404759" stroke-opacity="0.4" stroke-width="0.839506"/>
<path d="M29.8056 29.6395L29.8071 29.6386L47.8944 19.1699L37.6042 36.9964L37.5989 37.0056L37.594 37.0151C36.6609 38.8441 34.7786 40.0905 32.6008 40.0905C31.1187 40.0905 29.6973 39.5017 28.6494 38.4537C27.6014 37.4057 27.0126 35.9843 27.0126 34.5022C27.0126 32.4137 28.1502 30.5881 29.8056 29.6395Z" fill="#B5FFC5" fill-opacity="0.6" stroke="url(#paint0_linear_0_2195)" stroke-width="0.823529"/>
<path d="M32.6008 14.5012C36.2208 14.5012 39.6008 15.5012 42.5408 17.1412L38.3408 19.5612C36.6008 18.8812 34.6008 18.5012 32.6008 18.5012C28.3574 18.5012 24.2877 20.1869 21.2871 23.1875C18.2866 26.1881 16.6008 30.2578 16.6008 34.5012C16.6008 38.9212 18.3808 42.9212 21.2808 45.8012H21.3008C22.0808 46.5812 22.0808 47.8412 21.3008 48.6212C20.5208 49.4012 19.2408 49.4012 18.4608 48.6412C16.6008 46.7865 15.1256 44.5825 14.1199 42.1559C13.1143 39.7293 12.598 37.1279 12.6008 34.5012C12.6008 29.1969 14.708 24.1098 18.4587 20.3591C22.2094 16.6084 27.2965 14.5012 32.6008 14.5012ZM52.6008 34.5012C52.6008 40.0212 50.3608 45.0212 46.7408 48.6412C45.9608 49.4012 44.7008 49.4012 43.9208 48.6212C43.7354 48.4362 43.5883 48.2164 43.488 47.9745C43.3876 47.7325 43.336 47.4732 43.336 47.2112C43.336 46.9493 43.3876 46.6899 43.488 46.448C43.5883 46.206 43.7354 45.9862 43.9208 45.8012C45.4082 44.3199 46.5876 42.5587 47.3908 40.6192C48.1941 38.6798 48.6053 36.6004 48.6008 34.5012C48.6008 32.5012 48.2208 30.5012 47.5208 28.7012L49.9408 24.5012C51.6008 27.5012 52.6008 30.8612 52.6008 34.5012Z" fill="url(#paint1_linear_0_2195)"/>
</g>
<defs>
<filter id="filter0_i_0_2195" x="0.604736" y="0.923096" width="65.679" height="65.679" filterUnits="userSpaceOnUse" color-interpolation-filters="sRGB">
<feFlood flood-opacity="0" result="BackgroundImageFix"/>
<feBlend mode="normal" in="SourceGraphic" in2="BackgroundImageFix" result="shape"/>
<feColorMatrix in="SourceAlpha" type="matrix" values="0 0 0 0 0 0 0 0 0 0 0 0 0 0 0 0 0 0 127 0" result="hardAlpha"/>
<feOffset dx="1.67901" dy="1.67901"/>
<feGaussianBlur stdDeviation="1.67901"/>
<feComposite in2="hardAlpha" operator="arithmetic" k2="-1" k3="1"/>
<feColorMatrix type="matrix" values="0 0 0 0 0 0 0 0 0 0 0 0 0 0 0 0 0 0 0.25 0"/>
<feBlend mode="normal" in2="shape" result="effect1_innerShadow_0_2195"/>
</filter>
<linearGradient id="paint0_linear_0_2195" x1="23.7983" y1="46.1172" x2="46.263" y2="20.8895" gradientUnits="userSpaceOnUse">
<stop stop-color="white"/>
<stop offset="1" stop-color="white" stop-opacity="0"/>
</linearGradient>
<linearGradient id="paint1_linear_0_2195" x1="32.6008" y1="14.5012" x2="32.6008" y2="49.2087" gradientUnits="userSpaceOnUse">
<stop stop-color="#C8F962"/>
<stop offset="1" stop-color="#255D0A"/>
</linearGradient>
</defs>
</svg>
